# xmcd CD database file
#
# Track frame offsets:
#	150
#	19054
#	35714
#	53812
#	71530
#	90335
#	108430
#	127413
#	140684
#	154192
#	173906
#	184192
#	194401
#	208751
#
# Disc length: 2978 seconds
#
# Revision: 0
# Processed by: cddbd v1.5.1PL2 Copyright (c) Steve Scherf et al.
# Submitted via: CDex 1.51
#
DISCID=d00ba00e
DTITLE=Tunes For Baby That Won't Drive You Crazy - Country Baby
DYEAR=1900
DGENRE=Country
TTITLE0=Crazy
TTITLE1=I Didn't Know God Made Honky tong Angels
TTITLE2=Jolene
TTITLE3=I Got Friends In Low Places
TTITLE4=Goodbye Earl
TTITLE5=Ruby Don't Take You Love To Town
TTITLE6=Ring of Fire
TTITLE7=Beer For My Horses
TTITLE8=Stand By Your Man
TTITLE9=The Most Beautiful Girl in the World
TTITLE10=Hey Good Lookin'
TTITLE11=Mamas Don't Let Your Babies Grow Up To Be Cowboys
TTITLE12=Drive (For Daddy Gene)
TTITLE13=Blue Eyes Cryin in the Rain
EXTD=
EXTT0=
EXTT1=
EXTT2=
EXTT3=
EXTT4=
EXTT5=
EXTT6=
EXTT7=
EXTT8=
EXTT9=
EXTT10=
EXTT11=
EXTT12=
EXTT13=
PLAYORDER=
